<svg xmlns="http://www.w3.org/2000/svg" viewBox="0 0 549.05 93.62"><defs><style>.cls-1{fill:#0a3e91;}.cls-2,.cls-5{fill:#7a0828;}.cls-3{fill:#f4f4f4;}.cls-4{fill:none;stroke:#000;stroke-width:4px;}.cls-4,.cls-5{stroke-miterlimit:10;}.cls-5{font-size:42.71px;stroke:#7a0828;stroke-width:0.75px;font-family:MajorMonoDisplay-Regular, Major Mono Display;}</style></defs><g id="Layer_3" data-name="Layer 3"><path class="cls-1" d="M48.3,392.73c.71.26,1.06.19,3,.14,2.67-.07.66.11,5.83.05,4.41-.05,9.39-.19,9.45-.19h0c1.2,0,3.76-.12,5.17.62.36.19.67.45,2.1,3.15.46.88,2.26,4.33,3.91,8.23,1.18,2.81.82,1.55,5.63,11.27,2.66,5.39,4.09,8.36,5,10.25.58,1.22,1,2.15,2,4.27,2.55,5.41,2.08,4.35,2.45,5.15,2.21,4.86,2.65,6.73,3.49,6.69.44,0,.89-.84,1.64-2.54s1.68-3.24,2.34-4.93c.27-.72,1.59-3.5,4.24-9.06,1.14-2.4,2.93-5.94,6.52-13,3.85-7.6,3.72-7.26,4-8,1.24-2.94,2.84-5.72,4.11-8.64a6.14,6.14,0,0,1,2.13-3c1.09-.72,2.16-.74,4.93-.68,3.59.08,5.27.2,7.54.25,3.59.09,2.59-.14,5.62,0s4.68.35,6.17-.69c.95-.65.71-1,1.65-1.77,2-1.62,5.11-1.58,7.35-.78a8.36,8.36,0,0,1,4.71,11.81,8.41,8.41,0,0,1-4.18,3.91,8.08,8.08,0,0,1-3.77.55,6.94,6.94,0,0,1-3.09-1c-1.54-1-1.41-1.93-2.6-2.73-1-.65-1.7-.44-5-.34a61.15,61.15,0,0,1-7.13,0c-1.59-.13-3.19.07-4.78.05a2.86,2.86,0,0,0-1.6.31c-.73.44-.89,1.19-1.5,2.47-.78,1.63-1.17,2.45-1.24,2.61-1,2.51-3.42,6.71-4.79,9.59C115,426.37,114,428,112.59,431c-.88,1.82-1.42,3-1.92,4.09-1.28,2.78-2.27,4.78-4.25,8.78-1.13,2.26-2.54,5.11-3.31,6.52-.25.45-.47.83-.8,1.5a11.47,11.47,0,0,1-.81,1.65,3.92,3.92,0,0,1-1.27,1.29,5.4,5.4,0,0,1-2.13.37c-.7,0-1.48,0-2.92,0h0a3.55,3.55,0,0,1-2.81-.89,30.56,30.56,0,0,1-2-3.45l0,0c-.12-.21-.67-1.11-1.29-2.2l-.41-.71c-.11-.21-.45-.84-.87-1.71l-.2-.4c-1.14-2.44-3.78-7.74-3.78-7.74-1-2.11-1.86-3.78-3.52-7.11C76.82,424.16,77,424.66,75,420.7c-1.65-3.4-2.23-4.77-3.53-7.21-.26-.48-.75-1.38-1.36-2.65S69,408.44,68.45,407c-.43-1.15-1-2.26-1.37-3.43a2.61,2.61,0,0,0-1-1.51,2.42,2.42,0,0,0-1.51-.27c-1.27.08-2.56,0-3.83.07-.87.07-.46,0-4.19-.06-1.34,0-.3,0-6,.13a6,6,0,0,0-3.15.55c-1,.54-1.1,1.12-1.92,1.78A6.71,6.71,0,0,1,41,405.4a8.6,8.6,0,0,1-6.11-2.86A8.41,8.41,0,0,1,35.51,391a8.4,8.4,0,0,1,6.14-1.78,6.7,6.7,0,0,1,2.54.53C46.24,390.61,46.47,392.07,48.3,392.73Z" transform="translate(-32.86 -361.63)"/><path class="cls-2" d="M48.23,373.88c-.75.22-1,.76-1.58,1.36a7.11,7.11,0,0,1-3.21,1.8,8.79,8.79,0,0,1-4.16.28,7.77,7.77,0,0,1-4-1.93A8.29,8.29,0,0,1,33.43,367a7.83,7.83,0,0,1,3.84-4.73,8,8,0,0,1,5.23-.41A10.66,10.66,0,0,1,48,364.84c1.2,0,3.07.09,5.35.13,5.61.12,8.16.07,11.37.12,6.32.11,9.49.17,11.95.62,9,1.67,15.16,8.33,17.18,10.78,7.76,9.36,8.12,20.74,6.86,27.35a31.12,31.12,0,0,1-9,16.72c-2.62,2.85-3.55,3.21-4.25,3s-.74-.77-2.42-4.31c-1.31-2.74-1.78-3.48-1.42-4.33.3-.68.79-.67,2.18-1.87a18.89,18.89,0,0,0,5.81-9.81,24.36,24.36,0,0,0-.72-14.09,23.75,23.75,0,0,0-12.68-12.82c-3-1.29-5.46-1.6-9.19-2.05-5.92-.73-12.46-.4-15.36-.56a20.24,20.24,0,0,0-2.11,0c-.65,0-.75.07-1.51.11A9.61,9.61,0,0,0,48.23,373.88Z" transform="translate(-32.86 -361.63)"/><path class="cls-2" d="M70.11,420.79h-22a.62.62,0,0,1-.47-.22,9,9,0,0,0-5.86-3.16,8.91,8.91,0,0,0-6.26,1.79l-.08.08a8.6,8.6,0,0,0-1.06,10.1,7.94,7.94,0,0,0,2.38,2.6,8.68,8.68,0,0,0,6.45,1.24h.07a8.15,8.15,0,0,0,2.7-1.44,8,8,0,0,0,1.75-2,.6.6,0,0,1,.53-.3l25.11-.09a.62.62,0,0,0,.56-.87l-3.29-7.35A.61.61,0,0,0,70.11,420.79Z" transform="translate(-32.86 -361.63)"/><circle class="cls-3" cx="7.96" cy="7.93" r="3.72"/><circle class="cls-3" cx="7.96" cy="35.79" r="3.72"/><circle class="cls-3" cx="7.96" cy="63.75" r="3.72"/><circle class="cls-3" cx="119.15" cy="35.79" r="3.72"/><path class="cls-4" d="M69,393.1" transform="translate(-32.86 -361.63)"/><text class="cls-5" transform="translate(137.8 60.02)">DeVinci Codes</text></g></svg>